<svg width="32" height="32" viewBox="0 0 33 32" fill="none" xmlns="http://www.w3.org/2000/svg"><rect x="0.5" width="32" height="32" rx="12" ></rect><path d="M26.5 20.3711V20.3516C26.5 20.3776 26.5 20.3971 26.5 20.4102C26.513 20.4232 26.5195 20.4362 26.5195 20.4492C26.5195 20.4753 26.513 20.4948 26.5 20.5078C26.5 20.5208 26.5 20.5339 26.5 20.5469V23.1055C26.5 23.8346 26.2396 24.4596 25.7188 24.9805C25.2109 25.4883 24.599 25.7422 23.8828 25.7422H12.5742C11.9753 25.7422 11.3828 25.7422 10.7969 25.7422C10.224 25.7422 9.625 25.7422 9 25.7422C8.29688 25.7161 7.70443 25.4492 7.22266 24.9414C6.74089 24.4336 6.5 23.8281 6.5 23.125C6.5 23.112 6.5 23.1055 6.5 23.1055C6.5 21.9596 6.5 20.8203 6.5 19.6875C6.5 18.5417 6.5 17.4023 6.5 16.2695C6.5 15.1237 6.5 13.9844 6.5 12.8516C6.5 11.7188 6.5 10.5794 6.5 9.43359C6.5 9.42057 6.5 9.40755 6.5 9.39453C6.5 8.66536 6.75391 8.04688 7.26172 7.53906C7.78255 7.01823 8.40104 6.75781 9.11719 6.75781C9.85938 6.73177 10.5951 6.72526 11.3242 6.73828C12.0664 6.73828 12.8021 6.7513 13.5312 6.77734C13.5703 6.77734 13.5898 6.76432 13.5898 6.73828C13.6029 6.71224 13.6094 6.72526 13.6094 6.77734C13.6094 6.82943 13.5833 6.86198 13.5312 6.875C13.4792 6.88802 13.4531 6.89453 13.4531 6.89453L13.4141 6.91406C12.9974 7.16146 12.5938 7.44141 12.2031 7.75391C11.8255 8.05339 11.474 8.38542 11.1484 8.75C10.6276 9.32292 10.1849 9.97396 9.82031 10.7031C9.46875 11.4193 9.22135 12.2005 9.07812 13.0469L9.09766 12.9883C9.04557 13.2357 9.00651 13.4831 8.98047 13.7305C8.96745 13.9779 8.96094 14.2253 8.96094 14.4727C8.96094 15.0716 9.01953 15.651 9.13672 16.2109C9.26693 16.7839 9.44271 17.3307 9.66406 17.8516C9.89844 18.3594 10.1784 18.8346 10.5039 19.2773C10.8164 19.7331 11.1745 20.1562 11.5781 20.5469H11.5977C11.6888 20.612 11.7604 20.7031 11.8125 20.8203C11.8776 20.9245 11.9102 21.0417 11.9102 21.1719C11.9102 21.276 11.8906 21.3737 11.8516 21.4648C11.8125 21.556 11.7669 21.6341 11.7148 21.6992L11.6953 21.7188C11.513 21.9922 11.2982 22.2461 11.0508 22.4805C10.8164 22.7018 10.5495 22.8971 10.25 23.0664L10.1328 23.2227C10.0677 23.2617 10.0482 23.3008 10.0742 23.3398C10.1133 23.3659 10.1328 23.3789 10.1328 23.3789L10.0938 23.3594C10.2891 23.3984 10.4844 23.431 10.6797 23.457C10.875 23.4701 11.0768 23.4766 11.2852 23.4766C11.6628 23.4766 12.0339 23.4505 12.3984 23.3984C12.763 23.3333 13.1016 23.2422 13.4141 23.125C13.5964 23.0729 13.7786 23.0208 13.9609 22.9688C14.1432 22.9036 14.3255 22.8516 14.5078 22.8125H14.4883C14.5534 22.7995 14.6185 22.7865 14.6836 22.7734C14.7487 22.7604 14.8138 22.7539 14.8789 22.7539C14.944 22.7539 15.0091 22.7604 15.0742 22.7734C15.1393 22.7865 15.1979 22.7995 15.25 22.8125L15.1719 22.793C15.7578 23.0013 16.3633 23.1641 16.9883 23.2812C17.6263 23.3984 18.2708 23.457 18.9219 23.457C19.7292 23.457 20.5104 23.3724 21.2656 23.2031C22.0208 23.0339 22.7305 22.7995 23.3945 22.5L23.4531 22.4805C24 22.2331 24.5143 21.9401 24.9961 21.6016C25.4779 21.263 25.9271 20.8854 26.3438 20.4688C26.3698 20.4557 26.3893 20.4362 26.4023 20.4102C26.4284 20.3841 26.4609 20.3711 26.5 20.3711ZM12.1836 12.2461C12.1966 12.2461 12.2096 12.2461 12.2227 12.2461C12.2487 12.2461 12.2747 12.2461 12.3008 12.2461C12.3398 12.2461 12.3724 12.2461 12.3984 12.2461C12.4375 12.2461 12.4766 12.2526 12.5156 12.2656H14.8398H14.8203C14.8594 12.2656 14.8984 12.2656 14.9375 12.2656C14.9766 12.2526 15.0091 12.2461 15.0352 12.2461C15.0742 12.2461 15.1133 12.2526 15.1523 12.2656C15.1914 12.2656 15.224 12.2656 15.25 12.2656C15.3542 12.2917 15.4388 12.3503 15.5039 12.4414C15.569 12.5195 15.6016 12.6172 15.6016 12.7344C15.6016 12.7734 15.5951 12.8125 15.582 12.8516C15.582 12.8776 15.5755 12.9036 15.5625 12.9297V12.9492C15.4974 13.0664 15.4258 13.1836 15.3477 13.3008C15.2826 13.4049 15.2109 13.5026 15.1328 13.5938L13.4141 15.7812C13.388 15.8073 13.362 15.8398 13.3359 15.8789C13.3099 15.9049 13.2839 15.944 13.2578 15.9961H15.1328C15.3151 15.9961 15.4583 16.0352 15.5625 16.1133C15.6667 16.1784 15.7188 16.276 15.7188 16.4062C15.7188 16.4193 15.7188 16.4388 15.7188 16.4648C15.7188 16.4779 15.7188 16.4909 15.7188 16.5039C15.7188 16.6341 15.6667 16.7513 15.5625 16.8555C15.4714 16.9466 15.3607 16.9922 15.2305 16.9922C15.2174 16.9922 15.2044 16.9922 15.1914 16.9922C15.1914 16.9922 15.1849 16.9922 15.1719 16.9922H12.457C12.444 16.9922 12.431 16.9922 12.418 16.9922C12.4049 16.9922 12.3919 16.9922 12.3789 16.9922C12.2617 16.9922 12.151 16.9661 12.0469 16.9141C11.9557 16.849 11.8841 16.7643 11.832 16.6602C11.806 16.6211 11.7865 16.582 11.7734 16.543C11.7734 16.4909 11.7734 16.4453 11.7734 16.4062C11.7734 16.3151 11.7865 16.2305 11.8125 16.1523C11.8516 16.0742 11.8971 16.0091 11.9492 15.957L14 13.3789L14.1562 13.1445C14.1302 13.1445 14.0977 13.1445 14.0586 13.1445C14.0195 13.1445 14 13.1445 14 13.1445H12.5156C12.4896 13.1445 12.4635 13.1445 12.4375 13.1445C12.4115 13.1445 12.3854 13.1445 12.3594 13.1445C12.3203 13.1445 12.2878 13.1445 12.2617 13.1445C12.2357 13.1445 12.2096 13.1445 12.1836 13.1445C12.0794 13.1185 11.9883 13.0664 11.9102 12.9883C11.8451 12.8971 11.8125 12.7995 11.8125 12.6953C11.8125 12.5781 11.8451 12.4805 11.9102 12.4023C11.9883 12.3242 12.0794 12.2721 12.1836 12.2461ZM16.8711 17.0312H16.8516C16.526 16.9141 16.2526 16.7188 16.0312 16.4453C15.8229 16.1719 15.7057 15.8594 15.6797 15.5078C15.6667 15.4557 15.6536 15.4036 15.6406 15.3516C15.6406 15.2865 15.6406 15.2279 15.6406 15.1758C15.6406 14.8372 15.7253 14.5312 15.8945 14.2578C16.0638 13.9714 16.2917 13.75 16.5781 13.5938C16.6823 13.5156 16.7995 13.457 16.9297 13.418C17.0729 13.3789 17.2161 13.3594 17.3594 13.3594C17.5417 13.3594 17.7109 13.3984 17.8672 13.4766C18.0365 13.5417 18.1862 13.6328 18.3164 13.75C18.3555 13.6719 18.401 13.6003 18.4531 13.5352C18.5182 13.4701 18.5964 13.418 18.6875 13.3789C18.7135 13.3789 18.7331 13.3789 18.7461 13.3789C18.7721 13.3789 18.7982 13.3789 18.8242 13.3789C18.9674 13.3789 19.0911 13.431 19.1953 13.5352C19.2995 13.6263 19.3581 13.7435 19.3711 13.8867C19.3711 14.7591 19.3711 15.6315 19.3711 16.5039C19.3711 16.6211 19.332 16.7253 19.2539 16.8164C19.1888 16.9076 19.1042 16.9661 19 16.9922C18.974 17.0052 18.9414 17.0182 18.9023 17.0312C18.8763 17.0312 18.8503 17.0312 18.8242 17.0312C18.7331 17.0312 18.6484 17.0117 18.5703 16.9727C18.5052 16.9336 18.4466 16.8815 18.3945 16.8164C18.3555 16.7773 18.3229 16.7578 18.2969 16.7578C18.2839 16.7448 18.2513 16.7643 18.1992 16.8164C18.082 16.9076 17.9518 16.9792 17.8086 17.0312C17.6654 17.0833 17.5091 17.1094 17.3398 17.1094C17.2617 17.1094 17.1771 17.1029 17.0859 17.0898C17.0078 17.0768 16.9362 17.0573 16.8711 17.0312ZM17.5742 14.3164C17.3398 14.3034 17.1445 14.388 16.9883 14.5703C16.832 14.7396 16.7539 14.987 16.7539 15.3125C16.7669 15.4167 16.7865 15.5143 16.8125 15.6055C16.8516 15.6966 16.8971 15.7812 16.9492 15.8594C17.0143 15.9375 17.0924 16.0026 17.1836 16.0547C17.2878 16.1068 17.3984 16.1328 17.5156 16.1328C17.5938 16.1328 17.6719 16.1198 17.75 16.0938C17.8281 16.0677 17.8932 16.0352 17.9453 15.9961V15.9766C17.9714 15.9635 17.9974 15.9505 18.0234 15.9375C18.0495 15.9115 18.0755 15.8854 18.1016 15.8594C18.1536 15.7682 18.1992 15.6706 18.2383 15.5664C18.2773 15.4492 18.2969 15.3385 18.2969 15.2344C18.2969 15.1172 18.2773 15.0065 18.2383 14.9023C18.1992 14.7852 18.1536 14.6875 18.1016 14.6094V14.5898C18.0365 14.5117 17.9583 14.4466 17.8672 14.3945C17.776 14.3424 17.6784 14.3164 17.5742 14.3164ZM23.3555 17.1094H23.375C23.3229 17.1224 23.2708 17.1289 23.2188 17.1289C23.1797 17.1289 23.1341 17.1289 23.082 17.1289C22.5872 17.1289 22.1641 16.9596 21.8125 16.6211C21.474 16.2695 21.3047 15.8464 21.3047 15.3516C21.3047 15.3385 21.3047 15.332 21.3047 15.332C21.3047 15.319 21.3047 15.3125 21.3047 15.3125C21.3047 15.2995 21.3047 15.2865 21.3047 15.2734C21.3047 15.2474 21.3047 15.2279 21.3047 15.2148C21.3047 14.694 21.487 14.2513 21.8516 13.8867C22.2161 13.5221 22.6589 13.3398 23.1797 13.3398C23.6745 13.3398 24.1042 13.5156 24.4688 13.8672C24.8333 14.2057 25.0286 14.6224 25.0547 15.1172V15.0977C25.0547 15.1367 25.0547 15.1758 25.0547 15.2148C25.0547 15.2409 25.0547 15.2669 25.0547 15.293C25.0547 15.7747 24.8919 16.1914 24.5664 16.543C24.2409 16.8945 23.8372 17.0833 23.3555 17.1094ZM23.2383 14.3164C22.9909 14.3034 22.7956 14.3815 22.6523 14.5508C22.5091 14.707 22.444 14.9349 22.457 15.2344V15.2148C22.457 15.2279 22.457 15.2409 22.457 15.2539C22.457 15.2669 22.457 15.2799 22.457 15.293C22.457 15.3971 22.4701 15.4948 22.4961 15.5859C22.5352 15.6771 22.5807 15.7617 22.6328 15.8398C22.6979 15.918 22.776 15.9831 22.8672 16.0352C22.9714 16.0872 23.082 16.1133 23.1992 16.1133C23.2773 16.1133 23.3555 16.1003 23.4336 16.0742C23.5117 16.0482 23.5768 16.0091 23.6289 15.957H23.6484C23.6615 15.944 23.6745 15.931 23.6875 15.918C23.7135 15.8919 23.7396 15.8724 23.7656 15.8594C23.8177 15.7682 23.8633 15.6706 23.9023 15.5664C23.9414 15.4492 23.9609 15.3385 23.9609 15.2344C23.9609 15.1172 23.9414 15.0065 23.9023 14.9023C23.8633 14.7852 23.8177 14.6875 23.7656 14.6094V14.5898C23.7005 14.5117 23.6224 14.4531 23.5312 14.4141C23.4401 14.362 23.3424 14.3294 23.2383 14.3164ZM20.25 17.0312C20.1328 16.9922 20.0417 16.9271 19.9766 16.8359C19.9115 16.7318 19.8789 16.6211 19.8789 16.5039C19.8789 16.4909 19.8789 16.4844 19.8789 16.4844C19.8789 16.4714 19.8789 16.4648 19.8789 16.4648V12.9688C19.8789 12.8646 19.8789 12.7669 19.8789 12.6758C19.8789 12.5716 19.8789 12.4674 19.8789 12.3633C19.8789 12.3503 19.8724 12.3372 19.8594 12.3242C19.8594 12.3112 19.8594 12.2982 19.8594 12.2852C19.8594 12.1289 19.9115 11.9987 20.0156 11.8945C20.1328 11.7904 20.2695 11.7383 20.4258 11.7383C20.569 11.7383 20.6927 11.7904 20.7969 11.8945C20.9141 11.9987 20.9727 12.1289 20.9727 12.2852C20.9727 12.2982 20.9727 12.3112 20.9727 12.3242C20.9727 12.3372 20.9661 12.3503 20.9531 12.3633C20.9531 12.7018 20.9531 13.0469 20.9531 13.3984C20.9531 13.737 20.9531 14.0755 20.9531 14.4141C20.9531 14.7526 20.9531 15.0911 20.9531 15.4297C20.9531 15.7682 20.9531 16.1068 20.9531 16.4453C20.9531 16.6016 20.901 16.7383 20.7969 16.8555C20.6927 16.9596 20.5625 17.0182 20.4062 17.0312H20.25Z" fill="#ffffff"></path></svg>